<svg xmlns="http://www.w3.org/2000/svg" width="32" height="32" viewBox="0 0 32 32"><path d="M29.844 24C31.214 21.645 32 18.922 32 16c0-8.836-7.164-16-16-16S0 7.164 0 16s7.164 16 16 16c4.418 0 8.418-1.79 11.312-4.688L24.48 24.48C22.31 26.656 19.31 28 16 28 9.383 28 4 22.617 4 16S9.383 4 16 4s12 5.383 12 12c0 1.422-.273 2.78-.73 4.047L27.238 20H24V8.043h-8c-4.418 0-8 3.582-8 8s3.582 8 8 8c1.836 0 3.508-.645 4.86-1.684.726.964 1.835 1.64 3.14 1.64h5.844zM20 14.008v2.035c0 2.207-1.797 4-4 4s-4-1.793-4-4 1.797-4 4-4h4v1.965z"/></svg>