<svg xmlns="http://www.w3.org/2000/svg" viewBox="0 0 32 32" enable-background="new 0 0 32 32"><g fill="#009ee7"><path d="M21 17H11c-.552 0-1 .448-1 1s.448 1 1 1h10c.552 0 1-.448 1-1s-.448-1-1-1zm2-6H9c-.552 0-1 .448-1 1s.448 1 1 1h14c.552 0 1-.448 1-1s-.448-1-1-1zM16 0C7.164 0 0 6.268 0 14c0 4.42 2.345 8.353 6 10.92V32l7.01-4.253c.97.16 1.967.253 2.99.253 8.837 0 16-6.268 16-14S24.837 0 16 0zm0 26c-1.168 0-2.296-.136-3.38-.367l-4.708 2.83.063-4.638C4.365 21.655 2 18.065 2 14 2 7.373 8.268 2 16 2s14 5.373 14 12-6.268 12-14 12z" fill-rule="evenodd" clip-rule="evenodd"/></g></svg>