<svg xmlns="http://www.w3.org/2000/svg" viewBox="0 0 64 64" enable-background="new 0 0 64 64"><g fill="#009ee7"><path d="M31.677 35.493c7.005 0 12.687-5.684 12.687-12.682 0-7.01-5.68-12.69-12.687-12.69-7.01 0-12.684 5.686-12.684 12.696 0 7 5.673 12.683 12.684 12.683zm16.035 3.482c-.67-1.435-1.514-2.878-2.592-4.255-.58-.738-1.638-1.548-2.66-2.103-2.653 2.972-6.497 4.854-10.783 4.854-4.283 0-8.126-1.88-10.775-4.84-1 .567-2.03 1.377-2.59 2.113-1.82 2.375-4.63 6.978-5.078 13.18-.094 1.31.53 3.31 1.623 4.07 2.076 1.455 6.554 3.314 15.878 3.314 3.228 0 5.948-.2 8.247-.51-.928-1.564-1.47-3.384-1.47-5.332-.002-5.69 4.55-10.323 10.2-10.483zm0 1.985c-4.694 0-8.5 3.805-8.5 8.5s3.806 8.5 8.5 8.5 8.5-3.807 8.5-8.5-3.805-8.5-8.5-8.5zm4.196 10.063h-3.28v3.28c0 .543-.44.983-.983.983-.543 0-.984-.44-.984-.983v-3.28h-3.273c-.544 0-.984-.44-.983-.982 0-.54.44-.98.983-.98h3.28v-3.28c0-.54.44-.98.983-.98.54 0 .982.44.983.98v3.28h3.276c.54 0 .98.44.982.985 0 .544-.44.984-.982.984z"/></g></svg>