<svg xmlns="http://www.w3.org/2000/svg" viewBox="0 0 100 100" enable-background="new 0 0 100 100"><path d="M86.964 86.357c2.023 0 3.776-.668 5.266-1.987l-25.498-25.5c-.612.44-1.205.865-1.765 1.27-1.908 1.406-3.457 2.503-4.646 3.29-1.183.787-2.77 1.59-4.74 2.41-1.976.82-3.817 1.23-5.525 1.23h-.1c-1.707 0-3.55-.41-5.524-1.23-1.976-.82-3.56-1.623-4.746-2.41-1.19-.787-2.738-1.884-4.647-3.29-.532-.39-1.122-.818-1.76-1.276L7.77 84.37c1.49 1.32 3.244 1.987 5.267 1.987h73.927zm-76.89-43.543c-1.908-1.272-3.6-2.73-5.073-4.37V77.24l22.48-22.475c-4.495-3.14-10.29-7.118-17.4-11.95zm79.904 0c-6.84 4.63-12.655 8.616-17.443 11.96L95 77.24V38.444c-1.44 1.608-3.114 3.064-5.022 4.37zm-3.014-27.17H13.037c-2.58 0-4.562.87-5.95 2.61C5.697 19.994 5 22.174 5 24.784c0 2.11.92 4.393 2.762 6.855 1.84 2.46 3.8 4.39 5.876 5.8 1.138.8 4.57 3.19 10.296 7.152 3.09 2.142 5.78 4.01 8.09 5.62 1.968 1.372 3.666 2.56 5.068 3.546l.75.534 1.385.998c1.087.787 1.99 1.423 2.71 1.91.72.485 1.59 1.028 2.613 1.63 1.02.603 1.984 1.056 2.888 1.357.905.302 1.742.453 2.512.453h.1c.77 0 1.607-.15 2.51-.452.905-.3 1.867-.75 2.89-1.354 1.02-.603 1.89-1.147 2.61-1.632.72-.486 1.625-1.122 2.713-1.91.564-.407 1.022-.737 1.384-.996l.75-.538 5.082-3.532c4.16-2.892 10.29-7.15 18.42-12.79 2.44-1.707 4.483-3.767 6.124-6.177 1.64-2.41 2.46-4.938 2.46-7.583 0-2.21-.796-4.1-2.385-5.676-1.59-1.572-3.475-2.36-5.65-2.36z" fill=" #009ee7"/></svg>