<svg xmlns="http://www.w3.org/2000/svg" width="216" height="146" viewBox="0 0 216 146"><g fill="#009ee7"><path d="M177.945 55.148c-2.037-2.036-4.495-3.055-7.375-3.055h.002V20.807c0-2.825-1.033-5.27-3.096-7.333-2.063-2.064-4.51-3.096-7.334-3.096-25.04 20.857-49.373 31.286-73 31.286H48.036c-3.585 0-6.654 1.276-9.207 3.83C36.275 48.046 35 51.115 35 54.7v15.643c0 3.585 1.274 6.654 3.827 9.207 2.553 2.554 5.622 3.83 9.207 3.83h9.94c-.923 2.933-1.52 5.935-1.792 9.002-.27 3.07-.366 5.743-.285 8.025s.49 5.024 1.222 8.23c.732 3.203 1.357 5.62 1.873 7.25s1.385 4.195 2.607 7.698c1.222 3.504 2.023 5.88 2.403 7.13 2.498 2.28 6.083 3.788 10.754 4.52 4.672.732 9.248.42 13.73-.937 4.48-1.357 7.508-3.613 9.083-6.762-2.064-1.63-3.734-3-5.01-4.115-1.277-1.112-2.58-2.47-3.91-4.07s-2.24-3.097-2.73-4.482c-.49-1.385-.652-2.96-.49-4.726.164-1.766.79-3.545 1.875-5.336-2.064-2.12-3.15-4.63-3.26-7.537-.107-2.906.735-5.636 2.527-8.19s4.264-4.344 7.414-5.376c21.456 1.792 43.507 12.112 66.157 30.96 2.823 0 5.27-1.032 7.332-3.096 2.064-2.063 3.096-4.51 3.096-7.333V72.95c2.88 0 5.34-1.018 7.376-3.055C179.98 67.858 181 65.4 181 62.522c0-2.88-1.02-5.337-3.055-7.374zm-17.802 46.155C138.905 85.063 118.05 75.8 97.573 73.52V51.522c20.312-2.227 41.17-11.542 62.57-27.945v77.726z"/></g></svg>