<svg xmlns="http://www.w3.org/2000/svg" width="100" height="100" viewBox="0 0 100 100"><g fill="#009ee7"><path d="M93.24 54.572l-.65-1.018c-1.034-1.522-2.064-3.043-3.62-4.06-1.292-.89-2.845-1.52-4.263-2.157 4.006-1.904 6.747-4.567 8.042-7.993.9-2.794-.75-5.074-.75-7.358v-.253c0-2.542-3.52-4.19-6.75-5.078-1.947-.38-4.09-.38-6.03-.257l-4.246.89 1.44-3.17c1.29-4.063.91-7.994-1.287-11.677l-.386-.63c-1.94-3.17-4.783-5.072-8.664-6.09-4.007-1.013-7.418-.633-11.038 1.27C51.42 8.894 48 11.81 48 15.615v.253l-.457.89-.682-.89-1.37-2.28c-2.07-3.174-4.696-5.078-7.93-5.968-2.847-.638-5.19-.38-7.647.89-2.712 1.642-4.28 4.19-4.926 7.74-.648 3.68-.002 7.23 1.938 10.78l.9 1.273-3.1-1.02c-3.88-.89-7.5-.38-11.12 1.523-3.753 1.9-6.08 4.57-7.633 8.247-1.422 3.553-1.29 6.975.52 10.15.776 1.397 1.94 2.54 2.97 3.302 1.555 1.52 3.495 2.41 5.82 2.79l.9.252-1.934 1.653c-1.813 1.525-2.844 3.426-3.49 5.33-.646 2.282-.388 4.57.904 6.73.647 1.01 1.292 1.892 2.327 2.535 1.034.883 2.326 1.52 3.876 1.65 2.846.636 5.82.636 9.05-.384l-2.33 3.81-.64 1.65c-1.296 4.055-.91 7.61 1.03 11.29.906 1.4 1.94 2.67 2.975 3.81 1.55 1.395 3.486 2.284 5.82 2.92 3.87 1.01 7.75.88 11.505-1.02 3.62-1.9 5.943-4.95 7.11-8.753l.125-.758c2.46 2.66 4.784 4.434 7.373 5.07 2.584.76 5.17.636 7.497-.89 2.2-1.27 3.75-3.426 4.526-6.093.645-2.79.645-5.58 0-8.746 1.29.88 2.586 1.518 4.135 1.895 4.136 1.274 7.76 1.143 11.38-.76 3.49-1.9 5.82-4.95 6.98-8.88 1.04-3.808.78-7.486-1.16-11.037zm-18.75-21.19l1.55-.638c2.33-1.01 4.525-1.268 6.857-1.01 2.19.252 3.748 1.263 4.52 2.79l.516 1.645-.258 1.27c-.903 2.28-2.846 4.06-6.075 5.45-1.293.63-2.713.89-4.264 1.138L61.43 45.94l-.26-.89-.26-.383.52-.638 13.06-10.65zM52.51 17.39c.645-2.537 2.458-4.44 4.785-5.71 2.328-1.27 4.913-1.525 7.368-.636 2.72.636 4.655 2.03 5.823 4.188.645 1.27 1.03 2.793 1.03 4.442l-.385 2.79c-.51 1.395-1.16 2.666-1.932 3.81L57.558 40.23c-1.16-.888-2.457-1.524-3.75-2.157L52.51 23.738l-.126-5.078.125-1.268zm-22.102.38c.124-2.284 1.026-3.807 2.58-4.694.778-.636 1.94-.636 2.973-.126 2.33.636 4.277 2.283 5.82 5.456.65 1.27 1.296 2.538 1.558 4.06l2.584 14.976-1.936.633-11.51-12.31-.645-1.27c-1.035-2.284-1.68-4.44-1.417-6.726zm-19.01 26.9c-1.033-1.9-1.033-3.803-.256-5.707.904-2.415 2.584-4.315 5.036-5.33 2.332-1.27 4.655-1.648 7.243-1.018l3.497 1.396 11.378 8.12c-1.033 1.278-1.68 2.54-2.07 3.81L17.6 48.23l-1.29-.253c-2.326-.382-3.88-1.393-4.912-3.302zM48 82.104l-.457 1.272c-.906 2.283-2.622 4.186-4.948 5.196-2.33 1.272-4.873 1.525-7.194.896-2.59-.638-4.57-2.16-5.6-4.193-.642-1.264-1.176-2.79-1.176-4.315l.627-2.913c.26-1.273.908-2.544 1.94-3.557L42.044 61.8c1.293.637 2.912 1.272 4.337 1.402.258 4.31 1.62 8.886 1.62 13.828v5.075zm-4.93-25.37c-1.68-1.526-2.58-3.687-2.58-5.97 0-2.285.9-4.186 2.58-5.965 1.555-1.4 3.624-2.288 6.08-2.288 2.328 0 4.526.89 5.952 2.283 1.803 1.78 2.584 3.68 2.584 5.964 0 2.283-.78 4.443-2.584 5.97-1.684 1.65-3.624 2.53-5.952 2.53-2.456 0-4.525-.88-6.08-2.53zm23.925 22.198c-.258 2.29-1.035 3.94-2.59 4.575-.9.628-1.936.628-2.97.507-2.457-.637-4.398-2.538-5.818-5.588l-1.555-4.186-1.936-11.037 2.194-.766 1.684-.88 5.43 5.448 3.363 4.063.645 1.266c1.162 2.16 1.81 4.192 1.553 6.6zm22.237-14.847c-.648 2.544-2.2 4.445-4.4 5.456-2.323 1.277-4.655 1.53-7.236.64-1.555-.375-2.588-1.02-3.49-2.03l-13.58-11.04.907-1.9.39-1.525 14.608-1.27 5.17-.123 1.3.12c1.93.638 3.75 1.78 4.78 3.68 1.292 1.403 1.94 3.304 1.94 5.466l-.386 2.53z" fill-rule="evenodd" clip-rule="evenodd"/></g></svg>