<svg xmlns="http://www.w3.org/2000/svg" width="46" height="100" viewBox="0 0 46 100"><g fill="#009ee7"><path d="M35.162 0c6.696 0 10.043 4.567 10.043 9.79 0 6.52-5.814 12.554-13.39 12.554-6.345 0-10.046-3.752-9.87-9.947C21.945 7.177 26.35 0 35.162 0zm-20.62 100c-5.286 0-9.163-3.262-5.462-17.615l6.07-25.457c1.057-4.077 1.23-5.707 0-5.707-1.588 0-8.45 2.82-12.51 5.59L0 52.41c12.863-10.93 27.662-17.338 34.004-17.338 5.285 0 6.168 6.36 3.525 16.148l-6.95 26.76c-1.24 4.73-.708 6.36.522 6.36 1.586 0 6.787-1.964 11.896-6.042l3 4.08C33.488 95.1 19.83 100 14.542 100z"/></g></svg>