<svg xmlns="http://www.w3.org/2000/svg" width="26" height="26" viewBox="0 0 26 26"><g fill="#009ee7"><path d="M22.908 21.886v.732c0 2.66-5.098 3.267-9.88 3.267-4.775 0-9.937-.605-9.937-3.267v-.732c0-1.954 3.524-3.933 6.525-5.02.217-.078 1.254-.644.674-2.163C8.945 13.33 8.03 12 8.03 9H18c0 2.97-.938 4.312-2.273 5.688h.008c-.566 1.725.34 2.133.484 2.18 3.15 1.042 6.688 3.005 6.688 5.018zM18.684 5.84c0-2.14-1.465-4.012-3.637-4.673C14.71 1.064 14 5.017 14 5.017V.67c0-.34-.266-.612-.57-.612h-.858C12.266.058 12 .33 12 .67v4.346s-.713-3.95-1.053-3.846c-2.168.662-3.63 2.533-3.63 4.67C7.317 6.39 6 5.614 6 8h14c0-2.41-1.316-1.612-1.316-2.16z"/></g></svg>