<svg xmlns="http://www.w3.org/2000/svg" width="512" height="512" viewBox="0 0 512 512"><g fill="#009ee7"><path d="M497.812 182.905c-7.81-60.12-55.14-108.023-115.112-116.51-6.532-.93-13.158-1.395-19.69-1.395-43.417 0-83.353 20.523-108.664 54.18-25.362-33.038-65.015-53.168-107.866-53.168-6.626 0-13.358.482-19.994 1.437-57.173 8.203-103.998 53.58-113.874 110.34-7.496 43.11 5.17 85.8 34.788 117.29 3.9 4.673 9.132 10.62 13.882 15.99l4.058 4.62c29.976 34.18 93.586 95.86 137.78 135.62 13.797 12.435 32.764 19.674 52.035 19.674h.545c19.92-.466 38.992-7.475 52.34-19.947 37.19-34.693 61.597-59.484 102.256-101.827l1.552-1.623c45.996-47.487 53.818-57.044 56.386-60.51 24-29.284 34.506-66.253 29.578-104.176zm-71.39 70.63c-12.265 15.056-8.985 11.245-53.053 56.738l-1.73 1.782c-39.95 41.583-63.89 65.75-100.17 99.6-3.59 3.35-11.61 5.316-16.257 5.316-6.103 0-12.173-2.06-16.21-5.693-42.096-37.886-105.078-98.697-133.365-130.963l-4.16-4.697c-4.614-5.227-10.89-12.692-14.638-16.817-17.77-19.564-26.055-45.31-21.43-71.82 5.943-34.19 34.2-61.53 68.694-66.485 4.12-.584 8.272-.884 12.372-.884 32.762 0 62.403 19.41 75.53 49.43 5.67 12.99 18.42 21.376 32.522 21.376 14.217 0 27.03-8.495 32.65-21.663 14.54-34.165 50.525-54.542 88.008-49.293 35.618 5.047 64.828 34.624 69.473 70.34 3.02 23.295-3.627 45.8-18.24 63.74z"/></g></svg>