<svg xmlns="http://www.w3.org/2000/svg" width="512" height="512" viewBox="0 0 512 512"><g fill="#009ee7"><path d="M145.656 174.37h106.18c14.657 0 26.54-12.098 26.54-26.76 0-14.66-11.883-26.75-26.54-26.75h-106.18c-14.655 0-26.548 12.09-26.548 26.75s11.892 26.76 26.548 26.76zm0 116.696h222.96c14.667 0 26.55-12.097 26.55-26.758 0-14.66-11.883-26.753-26.55-26.753h-222.96c-14.655 0-26.548 12.092-26.548 26.753 0 14.66 11.892 26.758 26.548 26.758zM379.238 344H145.656c-14.655 0-26.548 11.808-26.548 26.468s11.893 26.475 26.548 26.475H379.24c14.655 0 26.548-11.814 26.548-26.475 0-14.66-11.893-26.47-26.55-26.47zm-5.662-333h-269.22C71.506 11 45 37.627 45 70.467v369.275c0 32.846 26.506 59.657 59.357 59.657h316.18c32.85 0 59.357-26.817 59.357-59.66V119.93L373.576 11zm46.96 445.71h-316.18c-9.423 0-17.24-7.538-17.24-16.967V70.467c0-9.428 7.817-17.35 17.24-17.35h248.598v47.8c0 21.017 17.03 38.116 38.04 38.33l46.783.48v300.016c0 9.43-7.816 16.966-17.24 16.966z"/></g></svg>