<svg xmlns="http://www.w3.org/2000/svg" width="612" height="792" viewBox="0 0 612 792"><path d="M79.56 116.316c46.512 0 91.29 6.018 134.334 18.054s83.334 29.07 120.87 51.102c37.536 22.032 71.706 48.45 102.512 79.254 30.804 30.804 57.222 64.974 79.254 102.51 22.03 37.538 39.064 77.827 51.102 120.872 12.037 43.044 18.055 87.82 18.055 134.334 0 14.688-5.2 27.232-15.605 37.638s-22.95 15.604-37.638 15.604c-14.688 0-27.234-5.2-37.64-15.604-10.402-10.404-15.604-22.95-15.604-37.638 0-36.722-4.794-72.114-14.382-106.184-9.59-34.066-23.054-65.892-40.394-95.472S386.278 364.278 362 340.002s-51.204-45.084-80.784-62.424c-29.58-17.34-61.404-30.804-95.472-40.392-34.068-9.588-69.462-14.382-106.182-14.382-14.688 0-27.234-5.202-37.638-15.606-10.404-10.404-15.606-22.95-15.606-37.638s5.202-27.234 15.606-37.638c10.402-10.404 22.948-15.606 37.636-15.606zm0 201.348c42.024 0 81.498 8.058 118.422 24.174 36.924 16.116 69.156 37.944 96.696 65.484 27.54 27.54 49.368 59.77 65.484 96.694 16.116 36.926 24.174 76.398 24.174 118.424 0 14.688-5.202 27.232-15.604 37.638-10.404 10.404-22.95 15.604-37.64 15.604-14.688 0-27.234-5.2-37.638-15.604-10.404-10.404-15.606-22.95-15.606-37.638 0-27.337-5.202-53.04-15.606-77.112-10.404-24.072-24.582-45.084-42.534-63.036s-38.964-32.13-63.036-42.534c-24.072-10.403-49.776-15.604-77.112-15.604-14.688 0-27.234-5.202-37.638-15.606-10.404-10.404-15.606-22.95-15.606-37.638s5.202-27.234 15.606-37.638c10.404-10.406 22.95-15.608 37.638-15.608zm97.92 279.684c0 10.608-1.938 20.4-5.814 29.376-3.876 8.978-9.18 16.83-15.912 23.562-6.732 6.73-14.688 12.036-23.868 15.912-9.18 3.876-18.87 5.812-29.07 5.812-10.608 0-20.4-1.938-29.376-5.812s-16.83-9.182-23.562-15.912c-6.732-6.732-12.036-14.586-15.912-23.562-3.876-8.976-5.814-18.768-5.814-29.376 0-10.198 1.938-19.89 5.814-29.068 3.876-9.182 9.18-17.138 15.912-23.868 6.732-6.732 14.586-12.036 23.562-15.912s18.768-5.814 29.376-5.814c10.2 0 19.89 1.938 29.07 5.814 9.18 3.876 17.136 9.18 23.868 15.912 6.732 6.73 12.036 14.688 15.912 23.868 3.876 9.178 5.814 18.868 5.814 29.068z" fill="#fff"/></svg>