<svg version="1.2" baseProfile="tiny" xmlns="http://www.w3.org/2000/svg" width="24" height="24" viewBox="0 0 24 24"><g fill="#009ee7"><path d="M8.865 5c.75 0 1.44.202 2.07.61.323-.08.71-.122 1.156-.122 1.85 0 3.42.67 4.72 2.008 1.3 1.34 1.95 2.962 1.95 4.87 0 .466-.05.953-.15 1.46.263.59.395 1.188.395 1.795 0 1.1-.38 2.04-1.14 2.82-.76.78-1.67 1.174-2.726 1.174-.63 0-1.238-.162-1.826-.49-.527.083-.933.124-1.217.124-1.846 0-3.424-.67-4.732-2.01S5.4 14.274 5.4 12.368c0-.448.05-.9.152-1.37-.367-.61-.55-1.29-.55-2.04 0-1.096.376-2.03 1.126-2.8C6.876 5.384 7.79 5 8.866 5M12 15.53c-.406 0-.73-.06-.975-.183-.263-.142-.445-.284-.547-.425-.243-.447-.376-.68-.396-.7-.08-.243-.202-.447-.364-.61-.203-.14-.406-.212-.61-.212-.284 0-.517.09-.7.274-.183.182-.274.396-.274.64 0 .385.144.8.428 1.247.263.41.63.747 1.096 1.01.648.345 1.45.52 2.404.52.79 0 1.49-.124 2.1-.367.61-.284 1.055-.64 1.34-1.065.303-.467.455-.975.455-1.522 0-.444-.08-.85-.242-1.216-.163-.305-.416-.58-.762-.82-.365-.226-.75-.408-1.156-.55-.69-.204-1.178-.336-1.46-.396-.144-.02-.32-.055-.534-.107-.213-.05-.35-.085-.41-.106-.243-.08-.416-.152-.518-.212-.163-.08-.294-.193-.396-.336-.11-.1-.158-.232-.158-.395 0-.243.142-.455.426-.64.265-.202.65-.304 1.156-.304s.883.09 1.126.273c.263.225.456.478.577.762.163.264.295.446.396.547.16.127.354.188.577.188.264 0 .498-.102.7-.306.183-.18.274-.404.274-.67 0-.2-.07-.466-.213-.79-.16-.243-.375-.486-.64-.73-.282-.223-.657-.416-1.125-.58-.487-.14-1.006-.21-1.55-.21-.73 0-1.38.11-1.95.334-.568.2-1.005.506-1.31.91-.304.408-.456.874-.456 1.4 0 .53.142.986.425 1.37.347.407.73.69 1.157.853.487.224 1.075.407 1.765.548.12.02.27.057.44.107.173.05.325.09.458.12l.32.076c.284.103.517.243.7.427.183.14.274.354.274.64 0 .345-.163.628-.487.852-.365.242-.822.363-1.37.363M8.866 3c-1.61 0-3.054.61-4.175 1.765C3.59 5.9 3 7.35 3 8.957c0 .832.156 1.62.466 2.348-.047.357-.07.713-.07 1.062 0 2.438.853 4.547 2.532 6.267 1.693 1.732 3.768 2.61 6.164 2.61.254 0 .547-.02.896-.06.69.283 1.41.426 2.146.426 1.588 0 3.025-.614 4.157-1.777 1.12-1.143 1.71-2.6 1.71-4.21 0-.678-.11-1.35-.33-2.005.06-.427.09-.846.09-1.25 0-2.438-.844-4.545-2.51-6.264C16.56 4.37 14.49 3.49 12.09 3.49c-.28 0-.546.012-.8.037C10.534 3.177 9.72 3 8.864 3z"/></g></svg>