<svg xmlns="http://www.w3.org/2000/svg" width="16.002" height="16" viewBox="0 0 16.002 16"><path d="M16 3.038c-.588.26-1.22.438-1.884.517.678-.406 1.197-1.05 1.443-1.815-.64.376-1.34.65-2.09.797-.6-.64-1.45-1.037-2.397-1.037C9.26 1.5 7.79 2.97 7.79 4.782c0 .257.03.508.086.748C5.15 5.393 2.73 4.086 1.112 2.1.83 2.584.67 3.148.67 3.75c0 1.14.58 2.144 1.46 2.732-.538-.018-1.044-.166-1.487-.412v.04c0 1.59 1.132 2.918 2.633 3.22-.275.074-.565.115-.865.115-.21 0-.41-.02-.612-.06.418 1.304 1.63 2.253 3.066 2.28-1.123.88-2.54 1.404-4.077 1.404-.265 0-.526-.02-.783-.05 1.45.93 3.176 1.475 5.03 1.475 6.04 0 9.34-5.003 9.34-9.34l-.01-.426c.643-.46 1.2-1.04 1.64-1.697z" fill="#fff"/></svg>