<svg xmlns="http://www.w3.org/2000/svg" width="275.639mm" height="365.283mm" viewBox="0 0 27564 36528" shape-rendering="geometricPrecision" text-rendering="geometricPrecision" image-rendering="optimizeQuality" fill-rule="evenodd" clip-rule="evenodd"><defs><style type="text/css"><![CDATA[
    .fil0 {fill:#fff;fill-rule:nonzero}
   ]]></style></defs><path class="fil0" d="M23571 19216c-1057-1208-2464-2008-4221-2400v-162c1222-539 2181-1383 2875-2530 694-1148 1041-2457 1041-3928 0-1269-252-2390-755-3362-503-971-1264-1747-2282-2328-943-540-1952-894-3028-1063s-2658-253-4747-253H2407v30148h11384c1974 0 3601-189 4881-567 1280-377 2454-1012 3524-1903 904-742 1624-1680 2159-2814 534-1134 802-2450 802-3948 0-2052-529-3682-1586-4890zm-7888-5761c-217 500-612 891-1185 1175-522 256-1028 398-1518 425-491 27-1347 40-2569 40h-898V8718h496c1274 0 2232 10 2875 30s1200 138 1672 354c496 230 862 601 1098 1114 235 513 353 1012 353 1498 0 662-108 1242-324 1741zm1671 12463c-299 574-774 1009-1423 1306-739 337-1465 519-2178 546-713 28-1999 41-3858 41h-382v-7552h1318c1273 0 2289 10 3046 30 758 20 1353 118 1786 293 713 271 1248 669 1605 1195 356 527 535 1255 535 2187 0 729-150 1380-449 1954z" id="_501817496"/></svg>