<svg xmlns="http://www.w3.org/2000/svg" width="41.585" height="45.437" viewBox="0 0 41.585 45.437"><path d="M39.477 11.11c-.37-3.627-.962-6.45-1.897-7.56-3.855-4.565-30.86-4.9-33.925 0-.75 1.2-1.276 4.013-1.63 7.566C.888 11.25 0 12.21 0 13.383v4.443c0 .988.626 1.82 1.5 2.146-.207 6.998-.04 14.3.27 17.93 0 2.803 1.884 2.338 1.884 2.338H5.42v3.026c0 1.2 1.236 2.17 2.76 2.17 1.526 0 2.763-.97 2.763-2.17V40.24h20.534v3.026c0 1.2 1.236 2.17 2.762 2.17 1.523 0 2.76-.97 2.76-2.17V40.24h.58s2.216.304 2.358-1.016c0-3.62.228-11.646.04-19.22.93-.292 1.607-1.148 1.607-2.178v-4.443c0-1.202-.93-2.177-2.108-2.273zM10.25 4.2h20.735v3.137H10.25V4.2zm.296 32.467c-1.628 0-2.947-1.32-2.947-2.948s1.318-2.947 2.946-2.947c1.628 0 2.948 1.32 2.948 2.946 0 1.627-1.32 2.947-2.948 2.947zm20.328 0c-1.627 0-2.95-1.32-2.95-2.948s1.322-2.947 2.95-2.947 2.947 1.32 2.947 2.946c.002 1.627-1.318 2.947-2.946 2.947zm3.747-12.9H6.615V9.077H34.62v14.69z"/></svg>