<svg xmlns="http://www.w3.org/2000/svg" width="83.256" height="134.525" viewBox="0 0 83.256 134.525"><path d="M5.847 50.562h2.386v14.312H5.847c-1.32 0-2.386-1.062-2.386-2.385v-9.543c0-1.312 1.068-2.385 2.387-2.385zm71.562 0H75.02v14.312h2.387c1.317 0 2.385-1.062 2.385-2.385v-9.543c0-1.312-1.067-2.385-2.386-2.385zm-7.157-4.77V88.73c0 2.637-2.133 4.77-4.77 4.77v4.772c0 2.64-2.133 4.77-4.77 4.77H55.94c-2.637 0-4.77-2.136-4.77-4.77v-4.77H32.086v4.77c0 2.64-2.134 4.77-4.77 4.77h-4.77c-2.638 0-4.77-2.136-4.77-4.77v-4.77c-2.638 0-4.772-2.138-4.772-4.772V45.793c-.002-7.902 6.41-14.312 14.31-14.312h28.627c7.9 0 14.31 6.41 14.31 14.313zm-38.166-4.77H51.17v-4.77H32.087v4.77zm-4.77 42.94c0-2.64-2.135-4.772-4.77-4.772-2.637 0-4.77 2.133-4.77 4.77 0 2.636 2.133 4.772 4.77 4.772 2.634 0 4.77-2.138 4.77-4.77zm38.166 0c0-2.64-2.133-4.772-4.77-4.772-2.64 0-4.772 2.133-4.772 4.77 0 2.636 2.137 4.772 4.772 4.772 2.637 0 4.77-2.138 4.77-4.77zm0-38.17h-47.71V74.42h47.71V45.793z"/></svg>