<svg xmlns="http://www.w3.org/2000/svg" width="32" height="32" viewBox="0 0 32 32"><g fill-rule="evenodd" clip-rule="evenodd" fill="#333"><path d="M29 0H7C5.343 0 4 1.342 4 3v2H3C1.343 5 0 6.342 0 8v20c0 2.21 1.79 4 4 4h24c2.21 0 4-1.79 4-4V3c0-1.658-1.344-3-3-3zm1 28c0 1.102-.898 2-2 2H4c-1.103 0-2-.898-2-2V8c0-.552.448-1 1-1h1v20c0 .553.447 1 1 1s1-.447 1-1V3c0-.552.448-1 1-1h22c.55 0 1 .448 1 1v25zM19.498 13.005h8c.277 0 .5-.224.5-.5s-.223-.5-.5-.5h-8c-.275 0-.5.224-.5.5s.225.5.5.5zM19.498 10.005h8c.277 0 .5-.224.5-.5s-.223-.5-.5-.5h-8c-.275 0-.5.224-.5.5s.225.5.5.5zM19.498 7.005h8c.277 0 .5-.224.5-.5s-.223-.5-.5-.5h-8c-.275 0-.5.224-.5.5s.225.5.5.5zM16.5 27.004h-8c-.276 0-.5.225-.5.5 0 .277.224.5.5.5h8c.275 0 .5-.223.5-.5 0-.275-.224-.5-.5-.5zM16.5 24.004h-8c-.276 0-.5.225-.5.5 0 .277.224.5.5.5h8c.275 0 .5-.223.5-.5 0-.275-.224-.5-.5-.5zM16.5 21.004h-8c-.276 0-.5.225-.5.5 0 .277.224.5.5.5h8c.275 0 .5-.223.5-.5 0-.275-.224-.5-.5-.5zM27.5 27.004h-8c-.277 0-.5.225-.5.5 0 .277.223.5.5.5h8c.275 0 .5-.223.5-.5 0-.275-.225-.5-.5-.5zM27.5 24.004h-8c-.277 0-.5.225-.5.5 0 .277.223.5.5.5h8c.275 0 .5-.223.5-.5 0-.275-.225-.5-.5-.5zM27.5 21.004h-8c-.277 0-.5.225-.5.5 0 .277.223.5.5.5h8c.275 0 .5-.223.5-.5 0-.275-.225-.5-.5-.5zM27.5 15.004h-19c-.276 0-.5.224-.5.5s.224.5.5.5h19c.275 0 .5-.224.5-.5s-.225-.5-.5-.5zM27.5 18.004h-19c-.276 0-.5.225-.5.5 0 .277.224.5.5.5h19c.275 0 .5-.223.5-.5 0-.275-.225-.5-.5-.5zM9 13h7c.553 0 1-.447 1-1V5.004c0-.553-.447-1-1-1H9c-.553 0-1 .447-1 1V12c0 .552.447 1 1 1zm1-7h5v5h-5V6z"/></g></svg>