<svg xmlns="http://www.w3.org/2000/svg" width="32" height="32" viewBox="0 0 32 32"><path d="M29.6 15.028h-1.26v-3.77c0-.306-.136-.597-.375-.79-1.874-1.525-3.947-2.298-6.162-2.298-.078 0-.154.002-.23.004.032-.25.05-.502.05-.76 0-3.373-2.732-6.11-6.11-6.11-3.374 0-6.11 2.736-6.11 6.11 0 .258.02.51.05.758-2.143.045-4.163.816-5.985 2.296-.24.193-.387.484-.387.79v3.77h-.636C1.32 15.03.4 15.967.4 17.092v2.038c0 1.123.92 2.01 2.044 2.01h.638v7.366c0 .387.228.738.573.91.144.072.305.107.462.107.215 0 .432-.065.61-.2.02-.014 1.937-1.418 4.95-1.418 1.748 0 3.523.455 5.244 1.416.605.336 1.356.137 1.605 0 1.73-.94 3.496-1.416 5.242-1.416 2.965 0 4.916 1.394 4.953 1.42.18.133.39.2.604.2.153 0 .312-.036.452-.107.346-.173.562-.524.562-.91v-7.366h1.26c1.125 0 2.02-.89 2.02-2.012V17.09c0-1.125-.893-2.062-2.018-2.062zM9.702 25.865c-1.907 0-3.49.47-4.533.93v-5.658h1.348c1.124 0 2.003-.887 2.003-2.01V17.09c0-1.124-.877-2.062-2.002-2.062h-1.35v-3.27c1.342-1.03 2.898-1.55 4.49-1.55 1.913 0 3.537.754 4.42 1.266.11.11.18.224.33.337v15.006c-1.565-.632-3.13-.95-4.706-.95zm16.627.93c-1.12-.46-2.63-.93-4.536-.93-1.577 0-3.214.318-4.705.95V11.672c.744-.486 2.56-1.465 4.74-1.465 1.59 0 3.082.52 4.497 1.55v3.27h-.802c-1.125 0-2.028.937-2.028 2.062v2.037c0 1.123.903 2.01 2.028 2.01h.802v5.66h.002z"/></svg>